<svg xmlns="http://www.w3.org/2000/svg" xmlns:xlink="http://www.w3.org/1999/xlink" xmlns:lucid="lucid" width="1265.33" height="1073.33"><g transform="translate(-247.33333333333334 2272.6666666666665)" lucid:page-tab-id="G35c0bVlCWnvX"><path d="M0-2400h1760v1360H0z" fill="#fff"/><path d="M1103.74-1329.33h-.38v17.33l.75-10.18.54 10.15-1.28.06-16.63-319.33 1.28-.07z" stroke="#000" stroke-width=".05"/><path d="M1104.64-1328.65l-.63-.02h-.64v-.68h1.28z"/><path d="M1104.64-1328.65l-.63-.02h-.64v-.68h1.28z" stroke="#000" stroke-width=".05"/><path d="M1087.33-1631.32l-.6.04-.2-3.68.8-.04z"/><path d="M1087.33-1631.32l-.6.04-.2-3.68.8-.04z" stroke="#000" stroke-width=".05"/><use xlink:href="#a" transform="matrix(1,0,0,1,1097.7298611061037,-1441.1773111270186) translate(0 15.2890625)"/><path d="M1200-1212.8c0 7.07-42.98 12.8-96 12.8s-96-5.73-96-12.8v-102.4c0-7.07 42.98-12.8 96-12.8s96 5.73 96 12.8z" stroke="#d79b00" stroke-width="1.33" fill="#ffe6cc"/><path d="M1200-1315.2c0 7.07-42.98 12.8-96 12.8s-96-5.73-96-12.8" stroke="#d79b00" stroke-width="1.33" fill="none"/><use xlink:href="#b" transform="matrix(1,0,0,1,1018,-1302.4) translate(8.371826171875 51.498779296875)"/><use xlink:href="#c" transform="matrix(1,0,0,1,1018,-1302.4) translate(36.890380859375 51.498779296875)"/><use xlink:href="#d" transform="matrix(1,0,0,1,1018,-1302.4) translate(97.081787109375 51.498779296875)"/><path d="M792-1541.33a10.67 10.67 0 0 1 10.67-10.67h170.66a10.67 10.67 0 0 1 10.67 10.67v74.66a10.67 10.67 0 0 1-10.67 10.67H802.67a10.67 10.67 0 0 1-10.67-10.67z" stroke="#6c8ebf" stroke-width="1.33" fill="url(#e)"/><use xlink:href="#f" transform="matrix(1,0,0,1,812,-1552) translate(47.486083984375 43.950439453125)"/><use xlink:href="#g" transform="matrix(1,0,0,1,812,-1552) translate(25.8466796875 65.047119140625)"/><use xlink:href="#h" transform="matrix(1,0,0,1,812,-1552) translate(68.08642578125 65.047119140625)"/><path d="M680-2024v-40h832v40z" stroke="#6c8ebf" stroke-width="1.33" fill="url(#i)"/><path d="M1512-2024v680H680v-680z" stroke="#6c8ebf" stroke-width="1.33" fill="none"/><path d="M1208-1653.33a10.67 10.67 0 0 1 10.67-10.67h170.66a10.67 10.67 0 0 1 10.67 10.67v90.66a10.67 10.67 0 0 1-10.67 10.67h-170.66a10.67 10.67 0 0 1-10.67-10.67z" stroke="#d79b00" stroke-width="1.33" fill="url(#j)"/><use xlink:href="#k" transform="matrix(1,0,0,1,1228,-1664) translate(29.534423828125 41.402099609375)"/><use xlink:href="#l" transform="matrix(1,0,0,1,1228,-1664) translate(103.465576171875 41.402099609375)"/><use xlink:href="#m" transform="matrix(1,0,0,1,1228,-1664) translate(51.707275390625 62.498779296875)"/><use xlink:href="#n" transform="matrix(1,0,0,1,1228,-1664) translate(63.313232421875 62.498779296875)"/><use xlink:href="#o" transform="matrix(1,0,0,1,1228,-1664) translate(18.447998046875 83.595458984375)"/><use xlink:href="#p" transform="matrix(1,0,0,1,1228,-1664) translate(127.224853515625 83.595458984375)"/><path d="M1109.33-1920a10.67 10.67 0 0 1 10.67 10.67v554.66a10.67 10.67 0 0 1-10.67 10.67h-10.66a10.67 10.67 0 0 1-10.67-10.67v-554.66a10.67 10.67 0 0 1 10.67-10.67z" stroke="#000" stroke-width="1.33" fill="#fff"/><path d="M1206.68-1608.65l-.02 1.28-103.6-1.52.02-1.27z" stroke="#000" stroke-width=".05"/><path d="M1103.1-1610.17l-.03 1.3-3.68-.07v-1.28z" stroke="#000" stroke-width=".05"/><path d="M1207.33-1608.64v1.28h-.7l.03-1.3z"/><path d="M1207.33-1608.64v1.28h-.7l.03-1.3z" stroke="#000" stroke-width=".05"/><use xlink:href="#a" transform="matrix(1,0,0,1,1154.8666916666666,-1617.558283203125) translate(0 15.2890625)"/><path d="M792-1797.33a10.67 10.67 0 0 1 10.67-10.67h170.66a10.67 10.67 0 0 1 10.67 10.67v74.66a10.67 10.67 0 0 1-10.67 10.67H802.67a10.67 10.67 0 0 1-10.67-10.67z" stroke="#000" stroke-width="1.33" fill="#fff"/><use xlink:href="#q" transform="matrix(1,0,0,1,812,-1808) translate(24.77978515625 33.402099609375)"/><use xlink:href="#m" transform="matrix(1,0,0,1,812,-1808) translate(2.092041015625 54.498779296875)"/><use xlink:href="#r" transform="matrix(1,0,0,1,812,-1808) translate(13.697998046875 54.498779296875)"/><use xlink:href="#s" transform="matrix(1,0,0,1,812,-1808) translate(70.697998046875 54.498779296875)"/><use xlink:href="#p" transform="matrix(1,0,0,1,812,-1808) translate(72.83642578125 75.595458984375)"/><path d="M792-1925.33a10.67 10.67 0 0 1 10.67-10.67h170.66a10.67 10.67 0 0 1 10.67 10.67v74.66a10.67 10.67 0 0 1-10.67 10.67H802.67a10.67 10.67 0 0 1-10.67-10.67z" stroke="#001dbc" stroke-width="1.33" fill="#0050ef"/><use xlink:href="#t" transform="matrix(1,0,0,1,812,-1936) translate(58.572509765625 35.16015625)"/><use xlink:href="#u" transform="matrix(1,0,0,1,812,-1936) translate(76 56.2568359375)"/><use xlink:href="#v" transform="matrix(1,0,0,1,812,-1936) translate(17.390380859375 73.83740234375)"/><use xlink:href="#w" transform="matrix(1,0,0,1,812,-1936) translate(28.996337890625 73.83740234375)"/><use xlink:href="#x" transform="matrix(1,0,0,1,812,-1936) translate(59.630126953125 73.83740234375)"/><use xlink:href="#y" transform="matrix(1,0,0,1,812,-1936) translate(128.282470703125 73.83740234375)"/><path d="M1095.33-1887.36h-110v-1.28h110z" stroke="#000" stroke-width=".05"/><path d="M1096-1887.36h-.68v-1.28h.68z" stroke="#000" stroke-width=".05"/><path d="M985.35-1887.36h-.68v-1.28h.68z"/><path d="M985.35-1887.36h-.68v-1.28h.68z" stroke="#000" stroke-width=".05"/><use xlink:href="#a" transform="matrix(1,0,0,1,1040.3333083333337,-1896.790283203125) translate(0 15.2890625)"/><path d="M792-1669.33a10.67 10.67 0 0 1 10.67-10.67h170.66a10.67 10.67 0 0 1 10.67 10.67v74.66a10.67 10.67 0 0 1-10.67 10.67H802.67a10.67 10.67 0 0 1-10.67-10.67z" stroke="#006eaf" stroke-width="1.33" fill="#1ba1e2"/><use xlink:href="#z" transform="matrix(1,0,0,1,812,-1680) translate(52.7880859375 33.402099609375)"/><use xlink:href="#v" transform="matrix(1,0,0,1,812,-1680) translate(5.26025390625 54.498779296875)"/><use xlink:href="#A" transform="matrix(1,0,0,1,812,-1680) translate(16.8662109375 54.498779296875)"/><use xlink:href="#B" transform="matrix(1,0,0,1,812,-1680) translate(83.3662109375 54.498779296875)"/><use xlink:href="#y" transform="matrix(1,0,0,1,812,-1680) translate(72.83642578125 75.595458984375)"/><path d="M1103.33-1631.36h-118v-1.28h118z" stroke="#000" stroke-width=".05"/><path d="M985.35-1631.36h-.68v-1.28h.68z"/><path d="M985.35-1631.36h-.68v-1.28h.68zM1107-1631.36h-3.68v-1.28h3.68z" stroke="#000" stroke-width=".05"/><use xlink:href="#a" transform="matrix(1,0,0,1,1044.3333083333337,-1640.790283203125) translate(0 15.2890625)"/><path d="M888.64-1681.33h-1.28v-29.34h1.28z" stroke="#000" stroke-width=".05"/><path d="M888.64-1680.67h-1.28v-.68h1.28z"/><path d="M888.64-1680.67h-1.28v-.68h1.28z" stroke="#000" stroke-width=".05"/><path d="M888.64-1710.65h-1.28v-.68h1.28z"/><path d="M888.64-1710.65h-1.28v-.68h1.28z" stroke="#000" stroke-width=".05"/><use xlink:href="#a" transform="matrix(1,0,0,1,888,-1704.790283203125) translate(0 15.2890625)"/><path d="M1103.33-1759.36h-118v-1.28h118z" stroke="#000" stroke-width=".05"/><path d="M985.35-1759.36h-.68v-1.28h.68z"/><path d="M985.35-1759.36h-.68v-1.28h.68zM1104-1759.36h-.68v-1.28h.68z" stroke="#000" stroke-width=".05"/><use xlink:href="#a" transform="matrix(1,0,0,1,1044.3333083333337,-1768.790283203125) translate(0 15.2890625)"/><path d="M1192-1941.33a10.67 10.67 0 0 1 10.67-10.67h202.66a10.67 10.67 0 0 1 10.67 10.67v106.66a10.67 10.67 0 0 1-10.67 10.67h-202.66a10.67 10.67 0 0 1-10.67-10.67z" stroke="#82b366" stroke-width="1.33" fill="url(#C)"/><use xlink:href="#D" transform="matrix(1,0,0,1,1212,-1952) translate(17.025146484375 59.950439453125)"/><use xlink:href="#E" transform="matrix(1,0,0,1,1212,-1952) translate(84.610595703125 59.950439453125)"/><use xlink:href="#F" transform="matrix(1,0,0,1,1212,-1952) translate(11.226806640625 81.047119140625)"/><use xlink:href="#G" transform="matrix(1,0,0,1,1212,-1952) translate(22.832763671875 81.047119140625)"/><use xlink:href="#H" transform="matrix(1,0,0,1,1212,-1952) translate(62.957275390625 81.047119140625)"/><use xlink:href="#I" transform="matrix(1,0,0,1,1212,-1952) translate(166.446044921875 81.047119140625)"/><path d="M1304.64-1681.76h-1.28v-140.9h1.28z" stroke="#000" stroke-width=".05"/><path d="M1304.64-1822.65h-1.28v-.68h1.28z"/><path d="M1304.64-1822.65h-1.28v-.68h1.28z" stroke="#000" stroke-width=".05"/><path d="M1304-1666.82l-4.63-14.27h9.27z"/><path d="M1304-1664.75l-5.52-16.98h11.04zm-3.75-15.7l3.75 11.55 3.75-11.55z" stroke="#000" stroke-width=".05"/><use xlink:href="#a" transform="matrix(1,0,0,1,1304,-1752.790283203125) translate(0 15.2890625)"/><path d="M696-2064h96v48h-96z" stroke="#000" stroke-opacity="0" stroke-width="1.33" fill-opacity="0"/><use xlink:href="#J" transform="matrix(1,0,0,1,716,-2064) translate(-20.590087890625 30.498779296875)"/><path d="M1304.64-1969.76h-1.28v-253.57h1.28z" stroke="#000" stroke-width=".05"/><path d="M1304.64-2223.32h-1.28v-.68h1.28z"/><path d="M1304.64-2223.32h-1.28v-.68h1.28z" stroke="#000" stroke-width=".05"/><path d="M1304-1954.82l-4.63-14.27h9.27z"/><path d="M1304-1952.75l-5.52-16.98h11.04zm-3.75-15.7l3.75 11.55 3.75-11.55z" stroke="#000" stroke-width=".05"/><use xlink:href="#a" transform="matrix(1,0,0,1,1304,-2097.123591536458) translate(0 15.2890625)"/><path d="M1240-2272h128v48h-128z" stroke="#000" stroke-opacity="0" stroke-width="1.33" fill-opacity="0"/><use xlink:href="#K" transform="matrix(1,0,0,1,1260,-2272) translate(12.860595703125 19.950439453125)"/><use xlink:href="#L" transform="matrix(1,0,0,1,1260,-2272) translate(14.9619140625 41.047119140625)"/><path d="M1104.93-1503.5l-119.6.14v-1.28l119.6-.13z" stroke="#000" stroke-width=".05"/><path d="M985.35-1503.36h-.68v-1.28h.68z"/><path d="M985.35-1503.36h-.68v-1.28h.68zM1108.6-1503.5h-3.68v-1.27h3.68z" stroke="#000" stroke-width=".05"/><use xlink:href="#a" transform="matrix(1,0,0,1,1045.1333083333338,-1512.854283203125) translate(0 15.2890625)"/><path d="M774.24-1887.36H568.67v-1.28h205.57z" stroke="#000" stroke-width=".05"/><path d="M568.68-1887.36H568v-1.28h.68z" stroke="#000" stroke-width=".05"/><path d="M789.18-1888l-14.27 4.63v-9.27z"/><path d="M791.25-1888l-16.98 5.52v-11.04zm-15.7 3.75l11.55-3.75-11.55-3.75z" stroke="#000" stroke-width=".05"/><use xlink:href="#a" transform="matrix(1,0,0,1,679.6666916666663,-1896.790283203125) translate(0 15.2890625)"/><path d="M424-1925.33a10.67 10.67 0 0 1 10.67-10.67h122.66a10.67 10.67 0 0 1 10.67 10.67v74.66a10.67 10.67 0 0 1-10.67 10.67H434.67a10.67 10.67 0 0 1-10.67-10.67z" stroke="#996185" stroke-width="1.33" fill="url(#M)"/><use xlink:href="#N" transform="matrix(1,0,0,1,444,-1936) translate(36.149658203125 43.950439453125)"/><use xlink:href="#O" transform="matrix(1,0,0,1,444,-1936) translate(27.173828125 65.047119140625)"/><g filter="url(#P)"><path d="M424-1789.33a10.67 10.67 0 0 1 10.67-10.67h122.66a10.67 10.67 0 0 1 10.67 10.67v74.66a10.67 10.67 0 0 1-10.67 10.67H434.67a10.67 10.67 0 0 1-10.67-10.67z" stroke="#996185" stroke-width="1.33" fill="url(#Q)"/><use xlink:href="#R" transform="matrix(1,0,0,1,444,-1800) translate(26.139404296875 43.950439453125)"/><use xlink:href="#S" transform="matrix(1,0,0,1,444,-1800) translate(11.3466796875 65.047119140625)"/></g><path d="M790.67-1749.7v1.27l-204.92-2.7v-1.3z" stroke="#000" stroke-width=".05"/><path d="M791.33-1749.7v1.28h-.7l.03-1.3z"/><path d="M791.33-1749.7v1.28h-.7l.03-1.3z" stroke="#000" stroke-width=".05"/><path d="M585.03-1747.15l-14.2-4.82 14.32-4.45z"/><path d="M585.66-1746.26l-16.9-5.74 17.04-5.3zm-12.76-5.68l11.5 3.9.1-7.5z" stroke="#000" stroke-width=".05"/><use xlink:href="#a" transform="matrix(1,0,0,1,680.0000073246188,-1759.3212346363748) translate(0 15.2890625)"/><path d="M424-1541.33a10.67 10.67 0 0 1 10.67-10.67h122.66a10.67 10.67 0 0 1 10.67 10.67v74.66a10.67 10.67 0 0 1-10.67 10.67H434.67a10.67 10.67 0 0 1-10.67-10.67z" stroke="#b85450" stroke-width="1.33" fill="url(#T)"/><use xlink:href="#U" transform="matrix(1,0,0,1,444,-1552) translate(28.069091796875 15.2890625)"/><use xlink:href="#V" transform="matrix(1,0,0,1,444,-1552) translate(14.514892578125 36.3857421875)"/><use xlink:href="#W" transform="matrix(1,0,0,1,444,-1552) translate(18.74072265625 57.482421875)"/><use xlink:href="#X" transform="matrix(1,0,0,1,444,-1552) translate(63.08642578125 57.482421875)"/><use xlink:href="#Y" transform="matrix(1,0,0,1,444,-1552) translate(17.673828125 78.5791015625)"/><use xlink:href="#Z" transform="matrix(1,0,0,1,444,-1552) translate(31.408935546875 99.67578125)"/><path d="M774.24-1503.36h-204.9v-1.28h204.9z" stroke="#000" stroke-width=".05"/><path d="M569.35-1503.36h-.68v-1.28h.68z"/><path d="M569.35-1503.36h-.68v-1.28h.68z" stroke="#000" stroke-width=".05"/><path d="M789.18-1504l-14.27 4.63v-9.27z"/><path d="M791.25-1504l-16.98 5.52v-11.04zm-15.7 3.75l11.55-3.75-11.55-3.75z" stroke="#000" stroke-width=".05"/><g><use xlink:href="#a" transform="matrix(1,0,0,1,680,-1512.790283203125) translate(0 15.2890625)"/></g><path d="M248-1928h80v80h-80z" stroke="#000" stroke-width="1.33" fill="#fff"/><g><use xlink:href="#aa" transform="matrix(1,0,0,1,268,-1928) translate(-2.186767578125 46.498779296875)"/></g><path d="M248-1792h80v80h-80z" stroke="#000" stroke-width="1.33" fill="#fff"/><g><use xlink:href="#ab" transform="matrix(1,0,0,1,268,-1792) translate(-2.186767578125 46.498779296875)"/></g><path d="M406.94-1907.36l-77.47 19.82-.32-1.25 77.47-19.8z" stroke="#000" stroke-width=".05"/><path d="M329.5-1887.55l-.83.2v-1.3l.5-.14z"/><path d="M329.5-1887.55l-.83.2v-1.3l.5-.14z" stroke="#000" stroke-width=".05"/><path d="M421.24-1911.7l-12.67 8.04-2.3-8.98z"/><path d="M423.25-1912.2l-15.08 9.55-2.74-10.7zm-14.28 7.53l10.26-6.5-12.12-.77z" stroke="#000" stroke-width=".05"/><g><use xlink:href="#a" transform="matrix(1,0,0,1,376.0000087797654,-1908.9013913876477) translate(0 15.2890625)"/></g><path d="M414.1-1873.6l-84.53 121.42-1.05-.73 84.52-121.44z" stroke="#000" stroke-width=".05"/><path d="M329.58-1752.2l-.9 1.32v-1.95z"/><path d="M329.58-1752.2l-.9 1.32v-1.95z" stroke="#000" stroke-width=".05"/><path d="M417.75-1871.87l-7.6-5.3 11.95-9.06z"/><path d="M418.1-1870.84l-9.05-6.3 14.24-10.8zm-6.86-6.35l6.16 4.3 3.52-11.63z" stroke="#000" stroke-width=".05"/><g><use xlink:href="#a" transform="matrix(1,0,0,1,376.0000249999997,-1828.790283203125) translate(0 15.2890625)"/></g><path d="M423.2-1777.14l-.78 1.03-80.48-60.46.78-1.02z" stroke="#000" stroke-width=".05"/><path d="M423.33-1777.03v1.6l-.93-.7.77-1.02z"/><path d="M423.33-1777.03v1.6l-.93-.7.77-1.02z" stroke="#000" stroke-width=".05"/><path d="M344.58-1841.18l-5.57 7.42-8.6-12.28z"/><path d="M345.63-1841.5l-6.63 8.83-10.27-14.62zm-6.6 6.64l4.5-6-11.48-3.93z" stroke="#000" stroke-width=".05"/><g><use xlink:href="#a" transform="matrix(1,0,0,1,376.0000087797654,-1820.5680580543144) translate(0 15.2890625)"/></g><path d="M422.7-1728.44l-.05 1.28-76.92-2.5.04-1.28z" stroke="#000" stroke-width=".05"/><path d="M423.33-1728.42v1.28l-.7-.02.04-1.28z"/><path d="M423.33-1728.42v1.28l-.7-.02.04-1.28z" stroke="#000" stroke-width=".05"/><path d="M344.93-1725.7l-14.1-5.08 14.4-4.17z"/><path d="M345.54-1724.78l-16.8-6.07 17.16-4.97zm-12.64-5.94l11.42 4.13.24-7.5z" stroke="#000" stroke-width=".05"/><g><use xlink:href="#a" transform="matrix(1,0,0,1,376.00004122021954,-1738.1058524987538) translate(0 15.2890625)"/></g><defs><path d="M692-1286c-195 0-347 51-347 223 0 101 58 144 134 179 135 62 487 105 623 191 97 62 170 147 170 304 0 130-50 231-152 302S875 20 690 20C347 20 148-99 93-338l185-37c46 178 190 245 419 246 213 0 386-61 386-250 0-223-244-222-431-271-182-48-288-69-390-156-64-54-103-133-103-247 0-121 47-214 139-279s224-98 396-98c318 0 471 80 545 324l-188 33c-44-155-158-213-359-213" id="ac"/><path d="M715-719c191 17 334 134 334 330 0 274-191 409-478 409-283 0-463-130-493-382l186-17c24 167 126 250 307 250 177 0 294-88 291-266-3-174-149-246-344-244H416v-156h98c179 2 311-77 311-243 0-157-98-244-264-244-159 0-264 88-278 233l-181-14c23-229 206-367 461-367 262 0 447 124 447 373 0 197-120 298-295 334v4" id="ad"/><g id="b"><use transform="matrix(0.00927734375,0,0,0.00927734375,0,0)" xlink:href="#ac"/><use transform="matrix(0.00927734375,0,0,0.00927734375,12.6728515625,0)" xlink:href="#ad"/></g><path d="M797-1430c449 5 698 268 698 719S1245 20 795 20C342 20 103-258 97-711c-6-442 260-724 700-719zm-2 1295c338 0 505-227 505-576 0-336-175-563-503-563-332 0-506 222-506 563 0 335 178 576 504 576" id="ae"/><path d="M655-1102c307 0 398 221 398 556 0 377-133 566-398 566-180 0-272-66-339-188 1 22-7 151-10 168H132c4-36 6-110 6-223v-1261h180c-2 196 4 384-4 576h4c62-129 158-194 337-194zM318-529c0 254 57 416 289 416 91 0 152-37 197-101 76-109 76-543 0-651-44-63-105-98-195-98-236 0-291 169-291 434" id="af"/><path d="M137-1312v-172h180v172H137zM12 283c109-5 125-52 125-176v-1189h180V134c0 189-65 291-240 291-51 0-94-3-127-9V277" id="ag"/><path d="M87-548c0-338 159-553 484-554 325-2 484 204 477 599H276c-1 227 88 385 302 388 146 2 246-65 283-166l158 45C954-65 807 20 578 20 240 20 87-193 87-548zm775-93c-19-206-90-328-294-328-185 0-285 140-290 328h584" id="ah"/><path d="M779-765c-19-119-93-196-233-196-95 0-164 32-207 95s-64 170-64 320c0 144 23 251 68 320s114 104 205 104c139 0 224-79 240-212l182 12C946-119 781 22 553 20 230 17 87-201 87-542c0-338 145-557 464-560 225-1 380 129 413 323" id="ai"/><path d="M336-268c2 98 22 139 114 141 24 0 59-5 104-14V-8C495 8 434 16 372 16c-144 0-216-82-216-245v-722H31v-131h132l53-242h120v242h200v131H336v683" id="aj"/><g id="c"><use transform="matrix(0.00927734375,0,0,0.00927734375,0,0)" xlink:href="#ae"/><use transform="matrix(0.00927734375,0,0,0.00927734375,14.77880859375,0)" xlink:href="#af"/><use transform="matrix(0.00927734375,0,0,0.00927734375,25.345703125,0)" xlink:href="#ag"/><use transform="matrix(0.00927734375,0,0,0.00927734375,29.56689453125,0)" xlink:href="#ah"/><use transform="matrix(0.00927734375,0,0,0.00927734375,40.1337890625,0)" xlink:href="#ai"/><use transform="matrix(0.00927734375,0,0,0.00927734375,49.6337890625,0)" xlink:href="#aj"/></g><path d="M571-1102c350 0 480 196 482 560 2 357-151 562-488 562C233 20 86-198 86-542c0-373 162-560 485-560zm-8 989c244 0 301-164 301-429 0-266-49-427-290-427-239 0-299 165-299 427 0 252 61 429 288 429" id="ak"/><path d="M318-861c55-157 83-241 257-241 24 0 48 3 73 10v165c-24-7-56-10-96-10-75 0-132 33-171 97s-59 156-59 276V0H142c-3-364 6-725-6-1082h170c5 123 8 196 8 221h4" id="al"/><path d="M797-207C713-60 620 16 414 20 203 24 88-98 87-302c0-112 37-198 111-258s192-93 356-96l243-4c10-201-43-307-232-305-154 2-223 43-242 172l-188-17c31-195 175-292 434-292s410 116 410 364v466c3 95 12 159 101 161 17 0 37-2 59-7V-6c-45 11-92 16-139 16-143-2-188-76-197-217h-6zm-525-92c-1 116 66 187 183 184 230-7 361-164 342-419-124 5-305-2-389 30-83 32-136 92-136 205" id="am"/><path d="M824-897c-1-17 6-175 12-185h171c-12 319-6 716-6 1051 0 304-151 456-453 456-226 0-374-90-417-267l181-26c24 102 112 157 241 156 179 0 269-105 269-315 0-57 3-120-2-174C759-74 647 8 472 8 339 8 242-36 180-124S86-350 86-539c0-191 33-332 100-423s169-137 306-137c167 0 273 85 332 202zm-38 579c48-119 46-331 0-450-42-108-118-197-250-197-92 0-154 37-201 100-78 107-74 530-4 643 63 101 251 129 353 47 43-35 77-81 102-143" id="an"/><g id="d"><use transform="matrix(0.00927734375,0,0,0.00927734375,0,0)" xlink:href="#ac"/><use transform="matrix(0.00927734375,0,0,0.00927734375,12.6728515625,0)" xlink:href="#aj"/><use transform="matrix(0.00927734375,0,0,0.00927734375,17.95166015625,0)" xlink:href="#ak"/><use transform="matrix(0.00927734375,0,0,0.00927734375,28.5185546875,0)" xlink:href="#al"/><use transform="matrix(0.00927734375,0,0,0.00927734375,34.845703125,0)" xlink:href="#am"/><use transform="matrix(0.00927734375,0,0,0.00927734375,45.41259765625,0)" xlink:href="#an"/><use transform="matrix(0.00927734375,0,0,0.00927734375,55.9794921875,0)" xlink:href="#ah"/></g><linearGradient gradientUnits="userSpaceOnUse" id="e" x1="792" y1="-1456" x2="792" y2="-1552"><stop offset="0%" stop-color="#7ea6e0"/><stop offset="100%" stop-color="#dae8fc"/></linearGradient><path d="M720-1253V0H530v-1253H46v-156h1158v156H720" id="ao"/><path d="M1195-963c-175 0-249 144-249 336V0H768v-686c-5-190-26-277-198-277-171 0-249 147-249 336V0H142c-3-345 6-754-6-1082h170c5 68 6 94 8 185h3c69-134 140-205 316-205 171 0 257 66 294 205h3c67-129 152-205 328-205 238 0 313 127 313 381V0h-178v-686c-5-190-26-277-198-277" id="ap"/><path d="M320-908c63-128 152-193 335-193 133 0 233 45 299 134s99 230 99 421c0 377-133 566-398 566-167 0-279-63-336-188h-5c8 141 2 428 4 593H138V-861c0-111-2-185-6-221h174c5 33 9 134 10 174h4zm-2 380c0 254 57 415 289 415 89 0 149-37 195-99 76-105 79-547 1-653-45-62-105-97-194-97-243 1-291 184-291 434" id="aq"/><g id="f"><use transform="matrix(0.00927734375,0,0,0.00927734375,0,0)" xlink:href="#ao"/><use transform="matrix(0.00927734375,0,0,0.00927734375,9.5,0)" xlink:href="#ah"/><use transform="matrix(0.00927734375,0,0,0.00927734375,20.06689453125,0)" xlink:href="#ap"/><use transform="matrix(0.00927734375,0,0,0.00927734375,35.89404296875,0)" xlink:href="#aq"/><use transform="matrix(0.00927734375,0,0,0.00927734375,46.4609375,0)" xlink:href="#ak"/></g><path d="M496 424C268 175 127-92 127-532c0-438 143-704 369-952h174c-222 249-362 524-362 954 0 431 138 703 362 954H496" id="ar"/><path d="M138 0v-1484h180V0H138" id="as"/><g id="g"><use transform="matrix(0.00927734375,0,0,0.00927734375,0,0)" xlink:href="#ar"/><use transform="matrix(0.00927734375,0,0,0.00927734375,6.3271484375,0)" xlink:href="#ak"/><use transform="matrix(0.00927734375,0,0,0.00927734375,16.89404296875,0)" xlink:href="#aj"/><use transform="matrix(0.00927734375,0,0,0.00927734375,22.1728515625,0)" xlink:href="#ah"/><use transform="matrix(0.00927734375,0,0,0.00927734375,32.73974609375,0)" xlink:href="#as"/></g><path d="M513-963c-139 1-238 29-238 149 0 72 41 100 95 127 55 27 348 94 404 125 101 56 176 118 176 263C950-73 758 21 511 20 254 19 107-55 57-254l159-31c34 123 133 168 295 168 156 0 264-34 264-168 0-156-183-165-315-204-171-51-245-68-323-172-26-35-37-82-37-135 0-220 172-304 413-303 232 1 379 74 418 265l-162 20c-23-104-122-150-256-149" id="at"/><path d="M186-1484c228 249 369 516 369 956 0 438-143 704-369 952H12C235 172 374-97 374-530c0-431-140-704-362-954h174" id="au"/><g id="h"><use transform="matrix(0.00927734375,0,0,0.00927734375,0,0)" xlink:href="#aj"/><use transform="matrix(0.00927734375,0,0,0.00927734375,5.27880859375,0)" xlink:href="#al"/><use transform="matrix(0.00927734375,0,0,0.00927734375,11.60595703125,0)" xlink:href="#am"/><use transform="matrix(0.00927734375,0,0,0.00927734375,22.1728515625,0)" xlink:href="#ai"/><use transform="matrix(0.00927734375,0,0,0.00927734375,31.6728515625,0)" xlink:href="#ah"/><use transform="matrix(0.00927734375,0,0,0.00927734375,42.23974609375,0)" xlink:href="#at"/><use transform="matrix(0.00927734375,0,0,0.00927734375,51.73974609375,0)" xlink:href="#au"/></g><linearGradient gradientUnits="userSpaceOnUse" id="i" x1="680" y1="-1344" x2="680" y2="-2064"><stop offset="0%" stop-color="#7ea6e0"/><stop offset="100%" stop-color="#dae8fc"/></linearGradient><linearGradient gradientUnits="userSpaceOnUse" id="j" x1="1208" y1="-1552" x2="1208" y2="-1664"><stop offset="0%" stop-color="orange"/><stop offset="100%" stop-color="#ffcd28"/></linearGradient><path d="M813 20c-458 0-705-273-710-731-5-449 256-722 701-719 323 2 501 105 605 332l-182 54c-76-154-207-229-428-230-335-2-502 220-502 563 0 339 185 576 516 576 185 0 358-63 451-156v-254H843v-160h597v486C1303-77 1082 20 813 20" id="av"/><path d="M492-1341c-103 3-130 49-131 162v97h211v131H361V0H181v-951H29v-131h152v-122c0-192 78-276 264-278 50 0 92 4 127 12v137c-30-5-57-8-80-8" id="aw"/><path d="M663-1102c251 0 343 119 343 381V0H825v-686c0-183-40-279-223-277-184 2-280 141-280 336V0H142c-3-345 6-754-6-1082h170c5 68 6 94 8 185h3c76-134 157-205 346-205" id="ax"/><g id="k"><use transform="matrix(0.00927734375,0,0,0.00927734375,0,0)" xlink:href="#av"/><use transform="matrix(0.00927734375,0,0,0.00927734375,14.77880859375,0)" xlink:href="#al"/><use transform="matrix(0.00927734375,0,0,0.00927734375,21.10595703125,0)" xlink:href="#am"/><use transform="matrix(0.00927734375,0,0,0.00927734375,31.6728515625,0)" xlink:href="#aw"/><use transform="matrix(0.00927734375,0,0,0.00927734375,36.95166015625,0)" xlink:href="#am"/><use transform="matrix(0.00927734375,0,0,0.00927734375,47.5185546875,0)" xlink:href="#ax"/><use transform="matrix(0.00927734375,0,0,0.00927734375,58.08544921875,0)" xlink:href="#am"/></g><path d="M1321-530c-7 359-228 550-590 550-350 0-573-184-573-532v-897h191v881c-2 253 132 393 381 393 255 0 401-146 401-406v-868h190v879" id="ay"/><path d="M189 0v-1409h191V0H189" id="az"/><g id="l"><use transform="matrix(0.00927734375,0,0,0.00927734375,0,0)" xlink:href="#ay"/><use transform="matrix(0.00927734375,0,0,0.00927734375,13.72119140625,0)" xlink:href="#az"/></g><use transform="matrix(0.00927734375,0,0,0.00927734375,0,0)" xlink:href="#ar" id="m"/><path d="M835 0c-5-29-11-137-10-174h-4C759-45 663 20 484 20 177 20 86-201 86-536c0-377 133-566 398-566 178 1 273 67 339 188-4-187-1-380-2-570h180v1261c0 113 2 187 6 223H835zm-14-554c0-255-58-415-289-415-91 0-151 37-196 101-76 109-77 543-1 651 44 63 105 98 195 98 235 0 291-173 291-435" id="aA"/><g id="n"><use transform="matrix(0.00927734375,0,0,0.00927734375,0,0)" xlink:href="#aA"/><use transform="matrix(0.00927734375,0,0,0.00927734375,10.56689453125,0)" xlink:href="#am"/><use transform="matrix(0.00927734375,0,0,0.00927734375,21.1337890625,0)" xlink:href="#aj"/><use transform="matrix(0.00927734375,0,0,0.00927734375,26.41259765625,0)" xlink:href="#am"/></g><path d="M613 0H400L7-1082h192c109 337 207 579 307 941 97-323 214-627 320-941h191" id="aB"/><path d="M137-1312v-172h180v172H137zM137 0v-1082h180V0H137" id="aC"/><path d="M476 20C225 20 133-99 133-361v-721h181v686c0 183 40 279 223 277 184-2 280-141 280-336v-627h180c3 345-6 754 6 1082H833c-5-68-6-94-8-185h-3C746-51 665 20 476 20" id="aD"/><path d="M83 0v-137l605-806H117v-139h784v137L295-139h627V0H83" id="aE"/><g id="o"><use transform="matrix(0.00927734375,0,0,0.00927734375,0,0)" xlink:href="#aB"/><use transform="matrix(0.00927734375,0,0,0.00927734375,9.5,0)" xlink:href="#aC"/><use transform="matrix(0.00927734375,0,0,0.00927734375,13.72119140625,0)" xlink:href="#at"/><use transform="matrix(0.00927734375,0,0,0.00927734375,23.22119140625,0)" xlink:href="#aD"/><use transform="matrix(0.00927734375,0,0,0.00927734375,33.7880859375,0)" xlink:href="#am"/><use transform="matrix(0.00927734375,0,0,0.00927734375,44.35498046875,0)" xlink:href="#as"/><use transform="matrix(0.00927734375,0,0,0.00927734375,48.576171875,0)" xlink:href="#aC"/><use transform="matrix(0.00927734375,0,0,0.00927734375,52.79736328125,0)" xlink:href="#aE"/><use transform="matrix(0.00927734375,0,0,0.00927734375,62.29736328125,0)" xlink:href="#am"/><use transform="matrix(0.00927734375,0,0,0.00927734375,72.8642578125,0)" xlink:href="#aj"/><use transform="matrix(0.00927734375,0,0,0.00927734375,78.14306640625,0)" xlink:href="#aC"/><use transform="matrix(0.00927734375,0,0,0.00927734375,82.3642578125,0)" xlink:href="#ak"/><use transform="matrix(0.00927734375,0,0,0.00927734375,92.93115234375,0)" xlink:href="#ax"/></g><use transform="matrix(0.00927734375,0,0,0.00927734375,0,0)" xlink:href="#au" id="p"/><path d="M761-1409c296-3 496 141 497 424 1 274-202 436-485 436H359V0H168v-1409h593zm305 426c0-182-109-273-328-273H359v556h387c213 0 320-94 320-283" id="aF"/><path d="M322-1484c-2 195 6 405-8 587h3c73-129 159-205 346-205 250 0 342 118 343 381V0H825v-686c3-190-43-277-223-277-176-1-280 140-280 325V0H142v-1484h180" id="aG"/><g id="q"><use transform="matrix(0.00927734375,0,0,0.00927734375,0,0)" xlink:href="#aF"/><use transform="matrix(0.00927734375,0,0,0.00927734375,12.6728515625,0)" xlink:href="#al"/><use transform="matrix(0.00927734375,0,0,0.00927734375,19,0)" xlink:href="#ak"/><use transform="matrix(0.00927734375,0,0,0.00927734375,29.56689453125,0)" xlink:href="#ap"/><use transform="matrix(0.00927734375,0,0,0.00927734375,45.39404296875,0)" xlink:href="#ah"/><use transform="matrix(0.00927734375,0,0,0.00927734375,55.9609375,0)" xlink:href="#aj"/><use transform="matrix(0.00927734375,0,0,0.00927734375,61.23974609375,0)" xlink:href="#aG"/><use transform="matrix(0.00927734375,0,0,0.00927734375,71.806640625,0)" xlink:href="#ah"/><use transform="matrix(0.00927734375,0,0,0.00927734375,82.37353515625,0)" xlink:href="#aD"/><use transform="matrix(0.00927734375,0,0,0.00927734375,92.9404296875,0)" xlink:href="#at"/></g><g id="r"><use transform="matrix(0.00927734375,0,0,0.00927734375,0,0)" xlink:href="#ap"/><use transform="matrix(0.00927734375,0,0,0.00927734375,15.8271484375,0)" xlink:href="#ah"/><use transform="matrix(0.00927734375,0,0,0.00927734375,26.39404296875,0)" xlink:href="#aj"/><use transform="matrix(0.00927734375,0,0,0.00927734375,31.6728515625,0)" xlink:href="#al"/><use transform="matrix(0.00927734375,0,0,0.00927734375,38,0)" xlink:href="#aC"/><use transform="matrix(0.00927734375,0,0,0.00927734375,42.22119140625,0)" xlink:href="#ai"/></g><g id="s"><use transform="matrix(0.00927734375,0,0,0.00927734375,0,0)" xlink:href="#ai"/><use transform="matrix(0.00927734375,0,0,0.00927734375,9.5,0)" xlink:href="#ak"/><use transform="matrix(0.00927734375,0,0,0.00927734375,20.06689453125,0)" xlink:href="#as"/><use transform="matrix(0.00927734375,0,0,0.00927734375,24.2880859375,0)" xlink:href="#as"/><use transform="matrix(0.00927734375,0,0,0.00927734375,28.50927734375,0)" xlink:href="#ah"/><use transform="matrix(0.00927734375,0,0,0.00927734375,39.076171875,0)" xlink:href="#ai"/><use transform="matrix(0.00927734375,0,0,0.00927734375,48.576171875,0)" xlink:href="#aj"/><use transform="matrix(0.00927734375,0,0,0.00927734375,53.85498046875,0)" xlink:href="#aC"/><use transform="matrix(0.00927734375,0,0,0.00927734375,58.076171875,0)" xlink:href="#ak"/><use transform="matrix(0.00927734375,0,0,0.00927734375,68.64306640625,0)" xlink:href="#ax"/></g><path fill="#fff" d="M168 0v-1409h191v1253h712V0H168" id="aH"/><path fill="#fff" d="M571-1102c350 0 480 196 482 560 2 357-151 562-488 562C233 20 86-198 86-542c0-373 162-560 485-560zm-8 989c244 0 301-164 301-429 0-266-49-427-290-427-239 0-299 165-299 427 0 252 61 429 288 429" id="aI"/><path fill="#fff" d="M816 0L450-494 318-385V0H138v-1484h180v927l475-525h211L565-617 1027 0H816" id="aJ"/><path fill="#fff" d="M137-1312v-172h180v172H137zM137 0v-1082h180V0H137" id="aK"/><g id="t"><use transform="matrix(0.00927734375,0,0,0.00927734375,0,0)" xlink:href="#aH"/><use transform="matrix(0.00927734375,0,0,0.00927734375,10.56689453125,0)" xlink:href="#aI"/><use transform="matrix(0.00927734375,0,0,0.00927734375,21.1337890625,0)" xlink:href="#aJ"/><use transform="matrix(0.00927734375,0,0,0.00927734375,30.6337890625,0)" xlink:href="#aK"/></g><path fill="#fff" d="M496 424C268 175 127-92 127-532c0-438 143-704 369-952h174c-222 249-362 524-362 954 0 431 138 703 362 954H496" id="aL"/><use transform="matrix(0.00927734375,0,0,0.00927734375,0,0)" xlink:href="#aL" id="v"/><path fill="#fff" d="M138 0v-1484h180V0H138" id="aM"/><path fill="#fff" d="M824-897c-1-17 6-175 12-185h171c-12 319-6 716-6 1051 0 304-151 456-453 456-226 0-374-90-417-267l181-26c24 102 112 157 241 156 179 0 269-105 269-315 0-57 3-120-2-174C759-74 647 8 472 8 339 8 242-36 180-124S86-350 86-539c0-191 33-332 100-423s169-137 306-137c167 0 273 85 332 202zm-38 579c48-119 46-331 0-450-42-108-118-197-250-197-92 0-154 37-201 100-78 107-74 530-4 643 63 101 251 129 353 47 43-35 77-81 102-143" id="aN"/><g id="w"><use transform="matrix(0.00927734375,0,0,0.00927734375,0,0)" xlink:href="#aM"/><use transform="matrix(0.00927734375,0,0,0.00927734375,4.22119140625,0)" xlink:href="#aI"/><use transform="matrix(0.00927734375,0,0,0.00927734375,14.7880859375,0)" xlink:href="#aN"/></g><path fill="#fff" d="M513-963c-139 1-238 29-238 149 0 72 41 100 95 127 55 27 348 94 404 125 101 56 176 118 176 263C950-73 758 21 511 20 254 19 107-55 57-254l159-31c34 123 133 168 295 168 156 0 264-34 264-168 0-156-183-165-315-204-171-51-245-68-323-172-26-35-37-82-37-135 0-220 172-304 413-303 232 1 379 74 418 265l-162 20c-23-104-122-150-256-149" id="aO"/><path fill="#fff" d="M336-268c2 98 22 139 114 141 24 0 59-5 104-14V-8C495 8 434 16 372 16c-144 0-216-82-216-245v-722H31v-131h132l53-242h120v242h200v131H336v683" id="aP"/><path fill="#fff" d="M318-861c55-157 83-241 257-241 24 0 48 3 73 10v165c-24-7-56-10-96-10-75 0-132 33-171 97s-59 156-59 276V0H142c-3-364 6-725-6-1082h170c5 123 8 196 8 221h4" id="aQ"/><path fill="#fff" d="M797-207C713-60 620 16 414 20 203 24 88-98 87-302c0-112 37-198 111-258s192-93 356-96l243-4c10-201-43-307-232-305-154 2-223 43-242 172l-188-17c31-195 175-292 434-292s410 116 410 364v466c3 95 12 159 101 161 17 0 37-2 59-7V-6c-45 11-92 16-139 16-143-2-188-76-197-217h-6zm-525-92c-1 116 66 187 183 184 230-7 361-164 342-419-124 5-305-2-389 30-83 32-136 92-136 205" id="aR"/><path fill="#fff" d="M87-548c0-338 159-553 484-554 325-2 484 204 477 599H276c-1 227 88 385 302 388 146 2 246-65 283-166l158 45C954-65 807 20 578 20 240 20 87-193 87-548zm775-93c-19-206-90-328-294-328-185 0-285 140-290 328h584" id="aS"/><g id="x"><use transform="matrix(0.00927734375,0,0,0.00927734375,0,0)" xlink:href="#aO"/><use transform="matrix(0.00927734375,0,0,0.00927734375,9.5,0)" xlink:href="#aP"/><use transform="matrix(0.00927734375,0,0,0.00927734375,14.77880859375,0)" xlink:href="#aI"/><use transform="matrix(0.00927734375,0,0,0.00927734375,25.345703125,0)" xlink:href="#aQ"/><use transform="matrix(0.00927734375,0,0,0.00927734375,31.6728515625,0)" xlink:href="#aR"/><use transform="matrix(0.00927734375,0,0,0.00927734375,42.23974609375,0)" xlink:href="#aN"/><use transform="matrix(0.00927734375,0,0,0.00927734375,52.806640625,0)" xlink:href="#aS"/></g><path fill="#fff" d="M186-1484c228 249 369 516 369 956 0 438-143 704-369 952H12C235 172 374-97 374-530c0-431-140-704-362-954h174" id="aT"/><use transform="matrix(0.00927734375,0,0,0.00927734375,0,0)" xlink:href="#aT" id="y"/><path fill="#fff" d="M1366 0c4-412-9-843 9-1240-33 119-62 213-88 280L923 0H789L420-960c-31-92-62-184-89-280 13 403 5 827 7 1240H168v-1409h251l375 977c20 57 51 168 63 224 5-34 58-197 68-224l368-977h245V0h-172" id="aU"/><path fill="#fff" d="M1195-963c-175 0-249 144-249 336V0H768v-686c-5-190-26-277-198-277-171 0-249 147-249 336V0H142c-3-345 6-754-6-1082h170c5 68 6 94 8 185h3c69-134 140-205 316-205 171 0 257 66 294 205h3c67-129 152-205 328-205 238 0 313 127 313 381V0h-178v-686c-5-190-26-277-198-277" id="aV"/><g id="z"><use transform="matrix(0.00927734375,0,0,0.00927734375,0,0)" xlink:href="#aU"/><use transform="matrix(0.00927734375,0,0,0.00927734375,15.8271484375,0)" xlink:href="#aK"/><use transform="matrix(0.00927734375,0,0,0.00927734375,20.04833984375,0)" xlink:href="#aV"/><use transform="matrix(0.00927734375,0,0,0.00927734375,35.87548828125,0)" xlink:href="#aK"/><use transform="matrix(0.00927734375,0,0,0.00927734375,40.0966796875,0)" xlink:href="#aQ"/></g><path fill="#fff" d="M779-765c-19-119-93-196-233-196-95 0-164 32-207 95s-64 170-64 320c0 144 23 251 68 320s114 104 205 104c139 0 224-79 240-212l182 12C946-119 781 22 553 20 230 17 87-201 87-542c0-338 145-557 464-560 225-1 380 129 413 323" id="aW"/><g id="A"><use transform="matrix(0.00927734375,0,0,0.00927734375,0,0)" xlink:href="#aV"/><use transform="matrix(0.00927734375,0,0,0.00927734375,15.8271484375,0)" xlink:href="#aS"/><use transform="matrix(0.00927734375,0,0,0.00927734375,26.39404296875,0)" xlink:href="#aP"/><use transform="matrix(0.00927734375,0,0,0.00927734375,31.6728515625,0)" xlink:href="#aQ"/><use transform="matrix(0.00927734375,0,0,0.00927734375,38,0)" xlink:href="#aK"/><use transform="matrix(0.00927734375,0,0,0.00927734375,42.22119140625,0)" xlink:href="#aW"/><use transform="matrix(0.00927734375,0,0,0.00927734375,51.72119140625,0)" xlink:href="#aO"/></g><g id="B"><use transform="matrix(0.00927734375,0,0,0.00927734375,0,0)" xlink:href="#aO"/><use transform="matrix(0.00927734375,0,0,0.00927734375,9.5,0)" xlink:href="#aP"/><use transform="matrix(0.00927734375,0,0,0.00927734375,14.77880859375,0)" xlink:href="#aI"/><use transform="matrix(0.00927734375,0,0,0.00927734375,25.345703125,0)" xlink:href="#aQ"/><use transform="matrix(0.00927734375,0,0,0.00927734375,31.6728515625,0)" xlink:href="#aR"/><use transform="matrix(0.00927734375,0,0,0.00927734375,42.23974609375,0)" xlink:href="#aN"/><use transform="matrix(0.00927734375,0,0,0.00927734375,52.806640625,0)" xlink:href="#aS"/></g><linearGradient gradientUnits="userSpaceOnUse" id="C" x1="1192" y1="-1824" x2="1192" y2="-1952"><stop offset="0%" stop-color="#97d077"/><stop offset="100%" stop-color="#d5e8d4"/></linearGradient><g id="D"><use transform="matrix(0.00927734375,0,0,0.00927734375,0,0)" xlink:href="#az"/><use transform="matrix(0.00927734375,0,0,0.00927734375,5.27880859375,0)" xlink:href="#ax"/><use transform="matrix(0.00927734375,0,0,0.00927734375,15.845703125,0)" xlink:href="#an"/><use transform="matrix(0.00927734375,0,0,0.00927734375,26.41259765625,0)" xlink:href="#al"/><use transform="matrix(0.00927734375,0,0,0.00927734375,32.73974609375,0)" xlink:href="#ah"/><use transform="matrix(0.00927734375,0,0,0.00927734375,43.306640625,0)" xlink:href="#at"/><use transform="matrix(0.00927734375,0,0,0.00927734375,52.806640625,0)" xlink:href="#at"/></g><path d="M1207-1021c-59-155-207-253-415-253-322-2-494 232-494 563 0 326 186 574 502 574 197 0 346-98 445-293l156 78C1298-131 1096 20 791 20c-448 0-682-279-687-731-5-437 254-721 686-719 309 2 507 125 598 349" id="aX"/><g id="E"><use transform="matrix(0.00927734375,0,0,0.00927734375,0,0)" xlink:href="#aX"/><use transform="matrix(0.00927734375,0,0,0.00927734375,13.72119140625,0)" xlink:href="#ak"/><use transform="matrix(0.00927734375,0,0,0.00927734375,24.2880859375,0)" xlink:href="#ax"/><use transform="matrix(0.00927734375,0,0,0.00927734375,34.85498046875,0)" xlink:href="#aj"/><use transform="matrix(0.00927734375,0,0,0.00927734375,40.1337890625,0)" xlink:href="#al"/><use transform="matrix(0.00927734375,0,0,0.00927734375,46.4609375,0)" xlink:href="#ak"/><use transform="matrix(0.00927734375,0,0,0.00927734375,57.02783203125,0)" xlink:href="#as"/><use transform="matrix(0.00927734375,0,0,0.00927734375,61.2490234375,0)" xlink:href="#as"/><use transform="matrix(0.00927734375,0,0,0.00927734375,65.47021484375,0)" xlink:href="#ah"/><use transform="matrix(0.00927734375,0,0,0.00927734375,76.037109375,0)" xlink:href="#al"/></g><use transform="matrix(0.00927734375,0,0,0.00927734375,0,0)" xlink:href="#ar" id="F"/><path d="M168 0v-1409h191v1253h712V0H168" id="aY"/><g id="G"><use transform="matrix(0.00927734375,0,0,0.00927734375,0,0)" xlink:href="#ao"/><use transform="matrix(0.00927734375,0,0,0.00927734375,11.60595703125,0)" xlink:href="#aY"/><use transform="matrix(0.00927734375,0,0,0.00927734375,22.1728515625,0)" xlink:href="#ac"/></g><g id="H"><use transform="matrix(0.00927734375,0,0,0.00927734375,0,0)" xlink:href="#ao"/><use transform="matrix(0.00927734375,0,0,0.00927734375,9.5,0)" xlink:href="#ah"/><use transform="matrix(0.00927734375,0,0,0.00927734375,20.06689453125,0)" xlink:href="#al"/><use transform="matrix(0.00927734375,0,0,0.00927734375,26.39404296875,0)" xlink:href="#ap"/><use transform="matrix(0.00927734375,0,0,0.00927734375,42.22119140625,0)" xlink:href="#aC"/><use transform="matrix(0.00927734375,0,0,0.00927734375,46.4423828125,0)" xlink:href="#ax"/><use transform="matrix(0.00927734375,0,0,0.00927734375,57.00927734375,0)" xlink:href="#am"/><use transform="matrix(0.00927734375,0,0,0.00927734375,67.576171875,0)" xlink:href="#aj"/><use transform="matrix(0.00927734375,0,0,0.00927734375,72.85498046875,0)" xlink:href="#aC"/><use transform="matrix(0.00927734375,0,0,0.00927734375,77.076171875,0)" xlink:href="#ak"/><use transform="matrix(0.00927734375,0,0,0.00927734375,87.64306640625,0)" xlink:href="#ax"/></g><use transform="matrix(0.00927734375,0,0,0.00927734375,0,0)" xlink:href="#au" id="I"/><path d="M1106 0L543-680 359-540V0H168v-1409h191v706l679-706h225L663-797 1343 0h-237" id="aZ"/><g id="J"><use transform="matrix(0.00927734375,0,0,0.00927734375,0,0)" xlink:href="#aZ"/><use transform="matrix(0.00927734375,0,0,0.00927734375,12.6728515625,0)" xlink:href="#aD"/><use transform="matrix(0.00927734375,0,0,0.00927734375,23.23974609375,0)" xlink:href="#af"/><use transform="matrix(0.00927734375,0,0,0.00927734375,33.806640625,0)" xlink:href="#ah"/><use transform="matrix(0.00927734375,0,0,0.00927734375,44.37353515625,0)" xlink:href="#al"/><use transform="matrix(0.00927734375,0,0,0.00927734375,50.70068359375,0)" xlink:href="#ax"/><use transform="matrix(0.00927734375,0,0,0.00927734375,61.267578125,0)" xlink:href="#ah"/><use transform="matrix(0.00927734375,0,0,0.00927734375,71.83447265625,0)" xlink:href="#aj"/><use transform="matrix(0.00927734375,0,0,0.00927734375,77.11328125,0)" xlink:href="#ah"/><use transform="matrix(0.00927734375,0,0,0.00927734375,87.68017578125,0)" xlink:href="#at"/></g><path d="M1121 0v-653H359V0H168v-1409h191v596h762v-596h191V0h-191" id="ba"/><g id="K"><use transform="matrix(0.00927734375,0,0,0.00927734375,0,0)" xlink:href="#ba"/><use transform="matrix(0.00927734375,0,0,0.00927734375,13.72119140625,0)" xlink:href="#ao"/><use transform="matrix(0.00927734375,0,0,0.00927734375,25.3271484375,0)" xlink:href="#ao"/><use transform="matrix(0.00927734375,0,0,0.00927734375,36.93310546875,0)" xlink:href="#aF"/><use transform="matrix(0.00927734375,0,0,0.00927734375,49.60595703125,0)" xlink:href="#ac"/></g><g id="L"><use transform="matrix(0.00927734375,0,0,0.00927734375,0,0)" xlink:href="#aX"/><use transform="matrix(0.00927734375,0,0,0.00927734375,13.72119140625,0)" xlink:href="#as"/><use transform="matrix(0.00927734375,0,0,0.00927734375,17.9423828125,0)" xlink:href="#aC"/><use transform="matrix(0.00927734375,0,0,0.00927734375,22.16357421875,0)" xlink:href="#ah"/><use transform="matrix(0.00927734375,0,0,0.00927734375,32.73046875,0)" xlink:href="#ax"/><use transform="matrix(0.00927734375,0,0,0.00927734375,43.29736328125,0)" xlink:href="#aj"/><use transform="matrix(0.00927734375,0,0,0.00927734375,48.576171875,0)" xlink:href="#at"/></g><linearGradient gradientUnits="userSpaceOnUse" id="M" x1="424" y1="-1840" x2="424" y2="-1936"><stop offset="0%" stop-color="#d5739d"/><stop offset="100%" stop-color="#e6d0de"/></linearGradient><g id="N"><use transform="matrix(0.00927734375,0,0,0.00927734375,0,0)" xlink:href="#aY"/><use transform="matrix(0.00927734375,0,0,0.00927734375,10.56689453125,0)" xlink:href="#ak"/><use transform="matrix(0.00927734375,0,0,0.00927734375,21.1337890625,0)" xlink:href="#an"/></g><path d="M1167 0l-161-412H364L202 0H4l575-1409h217L1362 0h-195zM685-1265c-69 226-179 482-263 704h527c-89-236-186-456-264-704" id="bb"/><g id="O"><use transform="matrix(0.00927734375,0,0,0.00927734375,0,0)" xlink:href="#bb"/><use transform="matrix(0.00927734375,0,0,0.00927734375,12.6728515625,0)" xlink:href="#an"/><use transform="matrix(0.00927734375,0,0,0.00927734375,23.23974609375,0)" xlink:href="#ah"/><use transform="matrix(0.00927734375,0,0,0.00927734375,33.806640625,0)" xlink:href="#ax"/><use transform="matrix(0.00927734375,0,0,0.00927734375,44.37353515625,0)" xlink:href="#aj"/></g><linearGradient gradientUnits="userSpaceOnUse" id="Q" x1="424" y1="-1704" x2="424" y2="-1800"><stop offset="0%" stop-color="#d5739d"/><stop offset="100%" stop-color="#e6d0de"/></linearGradient><path d="M1366 0c4-412-9-843 9-1240-33 119-62 213-88 280L923 0H789L420-960c-31-92-62-184-89-280 13 403 5 827 7 1240H168v-1409h251l375 977c20 57 51 168 63 224 5-34 58-197 68-224l368-977h245V0h-172" id="bc"/><g id="R"><use transform="matrix(0.00927734375,0,0,0.00927734375,0,0)" xlink:href="#bc"/><use transform="matrix(0.00927734375,0,0,0.00927734375,15.8271484375,0)" xlink:href="#ah"/><use transform="matrix(0.00927734375,0,0,0.00927734375,26.39404296875,0)" xlink:href="#aj"/><use transform="matrix(0.00927734375,0,0,0.00927734375,31.6728515625,0)" xlink:href="#al"/><use transform="matrix(0.00927734375,0,0,0.00927734375,38,0)" xlink:href="#aC"/><use transform="matrix(0.00927734375,0,0,0.00927734375,42.22119140625,0)" xlink:href="#ai"/></g><path d="M168 0v-1409h1069v156H359v452h818v154H359v491h919V0H168" id="bd"/><path d="M801 0L510-444 217 0H23l385-556-367-526h199l270 421 268-421h201L612-558 1002 0H801" id="be"/><g id="S"><use transform="matrix(0.00927734375,0,0,0.00927734375,0,0)" xlink:href="#bd"/><use transform="matrix(0.00927734375,0,0,0.00927734375,12.6728515625,0)" xlink:href="#be"/><use transform="matrix(0.00927734375,0,0,0.00927734375,22.1728515625,0)" xlink:href="#aq"/><use transform="matrix(0.00927734375,0,0,0.00927734375,32.73974609375,0)" xlink:href="#ak"/><use transform="matrix(0.00927734375,0,0,0.00927734375,43.306640625,0)" xlink:href="#al"/><use transform="matrix(0.00927734375,0,0,0.00927734375,49.6337890625,0)" xlink:href="#aj"/><use transform="matrix(0.00927734375,0,0,0.00927734375,54.91259765625,0)" xlink:href="#ah"/><use transform="matrix(0.00927734375,0,0,0.00927734375,65.4794921875,0)" xlink:href="#al"/><use transform="matrix(0.00927734375,0,0,0.00927734375,71.806640625,0)" xlink:href="#at"/></g><filter id="P" filterUnits="objectBoundingBox" x="0" y="0" width="1.03" height="1.04"><feOffset result="offOut" in="SourceAlpha" dx="4" dy="4"/><feGaussianBlur result="blurOut" in="offOut"/><feColorMatrix result="colorOut" in="blurOut" values="0 0 0 0 0.7490196078431373 0 0 0 0 0.7490196078431373 0 0 0 0 0.7490196078431373 0 0 0 1 0"/><feBlend in="SourceGraphic" in2="colorOut"/></filter><linearGradient gradientUnits="userSpaceOnUse" id="T" x1="424" y1="-1456" x2="424" y2="-1552"><stop offset="0%" stop-color="#ea6b66"/><stop offset="100%" stop-color="#f8cecc"/></linearGradient><g id="U"><use transform="matrix(0.00927734375,0,0,0.00927734375,0,0)" xlink:href="#ao"/><use transform="matrix(0.00927734375,0,0,0.00927734375,10.90087890625,0)" xlink:href="#al"/><use transform="matrix(0.00927734375,0,0,0.00927734375,17.22802734375,0)" xlink:href="#am"/><use transform="matrix(0.00927734375,0,0,0.00927734375,27.794921875,0)" xlink:href="#ai"/><use transform="matrix(0.00927734375,0,0,0.00927734375,37.294921875,0)" xlink:href="#ah"/></g><g id="V"><use transform="matrix(0.00927734375,0,0,0.00927734375,0,0)" xlink:href="#aX"/><use transform="matrix(0.00927734375,0,0,0.00927734375,13.72119140625,0)" xlink:href="#ak"/><use transform="matrix(0.00927734375,0,0,0.00927734375,24.2880859375,0)" xlink:href="#as"/><use transform="matrix(0.00927734375,0,0,0.00927734375,28.50927734375,0)" xlink:href="#as"/><use transform="matrix(0.00927734375,0,0,0.00927734375,32.73046875,0)" xlink:href="#ah"/><use transform="matrix(0.00927734375,0,0,0.00927734375,43.29736328125,0)" xlink:href="#ai"/><use transform="matrix(0.00927734375,0,0,0.00927734375,52.79736328125,0)" xlink:href="#aj"/><use transform="matrix(0.00927734375,0,0,0.00927734375,58.076171875,0)" xlink:href="#ak"/><use transform="matrix(0.00927734375,0,0,0.00927734375,68.64306640625,0)" xlink:href="#al"/></g><g id="W"><use transform="matrix(0.00927734375,0,0,0.00927734375,0,0)" xlink:href="#ae"/><use transform="matrix(0.00927734375,0,0,0.00927734375,14.77880859375,0)" xlink:href="#ao"/><use transform="matrix(0.00927734375,0,0,0.00927734375,24.27880859375,0)" xlink:href="#ah"/><use transform="matrix(0.00927734375,0,0,0.00927734375,34.845703125,0)" xlink:href="#as"/></g><g id="X"><use transform="matrix(0.00927734375,0,0,0.00927734375,0,0)" xlink:href="#ak"/><use transform="matrix(0.00927734375,0,0,0.00927734375,10.56689453125,0)" xlink:href="#al"/></g><g id="Y"><use transform="matrix(0.00927734375,0,0,0.00927734375,0,0)" xlink:href="#av"/><use transform="matrix(0.00927734375,0,0,0.00927734375,14.77880859375,0)" xlink:href="#al"/><use transform="matrix(0.00927734375,0,0,0.00927734375,21.10595703125,0)" xlink:href="#am"/><use transform="matrix(0.00927734375,0,0,0.00927734375,31.6728515625,0)" xlink:href="#aw"/><use transform="matrix(0.00927734375,0,0,0.00927734375,36.95166015625,0)" xlink:href="#am"/><use transform="matrix(0.00927734375,0,0,0.00927734375,47.5185546875,0)" xlink:href="#ax"/><use transform="matrix(0.00927734375,0,0,0.00927734375,58.08544921875,0)" xlink:href="#am"/></g><path d="M350 384c-71 46-190 48-283 30V279c25 4 53 6 84 6 123 0 227-124 283-290L5-1082h192c109 293 229 581 326 886 105-293 205-591 307-886h190L604 0c-45 115-86 202-125 258s-83 96-129 126" id="bf"/><g id="Z"><use transform="matrix(0.00927734375,0,0,0.00927734375,0,0)" xlink:href="#bb"/><use transform="matrix(0.00927734375,0,0,0.00927734375,12.6728515625,0)" xlink:href="#as"/><use transform="matrix(0.00927734375,0,0,0.00927734375,16.89404296875,0)" xlink:href="#as"/><use transform="matrix(0.00927734375,0,0,0.00927734375,21.115234375,0)" xlink:href="#ak"/><use transform="matrix(0.00927734375,0,0,0.00927734375,31.68212890625,0)" xlink:href="#bf"/></g><path d="M156 0v-153h359v-1084l-318 227v-170l333-229h166v1256h343V0H156" id="bg"/><g id="aa"><use transform="matrix(0.00927734375,0,0,0.00927734375,0,0)" xlink:href="#bb"/><use transform="matrix(0.00927734375,0,0,0.00927734375,12.6728515625,0)" xlink:href="#aq"/><use transform="matrix(0.00927734375,0,0,0.00927734375,23.23974609375,0)" xlink:href="#aq"/><use transform="matrix(0.00927734375,0,0,0.00927734375,33.806640625,0)" xlink:href="#bg"/></g><path d="M572-1430c269 0 442 128 442 386 0 144-72 232-149 325-108 130-487 366-564 566h735V0H103v-127c119-285 378-432 583-627 76-72 141-150 143-284 1-156-100-244-257-244-156 0-263 93-277 238l-184-17c24-224 208-369 461-369" id="bh"/><g id="ab"><use transform="matrix(0.00927734375,0,0,0.00927734375,0,0)" xlink:href="#bb"/><use transform="matrix(0.00927734375,0,0,0.00927734375,12.6728515625,0)" xlink:href="#aq"/><use transform="matrix(0.00927734375,0,0,0.00927734375,23.23974609375,0)" xlink:href="#aq"/><use transform="matrix(0.00927734375,0,0,0.00927734375,33.806640625,0)" xlink:href="#bh"/></g></defs></g></svg>